<svg width="64" height="64" viewBox="0 0 64 64" fill="none" xmlns="http://www.w3.org/2000/svg">
<path d="M62.1253 0H56.4446C55.9473 0 55.4704 0.1975 55.1189 0.549251L18.7568 36.9112L27.0891 45.2434L63.451 8.88139C63.8028 8.52976 64.0003 8.05289 64.0003 7.55551V1.875C64.0003 0.839501 63.1608 0 62.1253 0V0Z" fill="white"/>
<path d="M7.47392 48.2116C6.36117 49.3244 5.76929 50.7788 5.71379 52.2456C4.26479 52.2861 2.82791 52.8578 1.72191 53.9636C-0.57397 56.2595 -0.57397 59.982 1.72191 62.278C4.01779 64.5739 7.74029 64.5739 10.0363 62.278C11.1355 61.1788 11.707 59.7524 11.7537 58.3123C13.1941 58.2658 14.6206 57.6938 15.7199 56.5944L19.1249 53.1893L10.8105 44.875L7.47392 48.2116Z" fill="white"/>
<path d="M34.644 42.9834L42.975 34.6525L45.2342 36.9117L36.9033 45.2426L34.644 42.9834Z" fill="white"/>
<path d="M21.0162 29.3483L29.3484 21.016L8.88151 0.549251C8.52989 0.1975 8.05301 0 7.55564 0H1.875C0.839501 0 0 0.839501 0 1.875V7.55551C0 8.05289 0.1975 8.52976 0.549251 8.88126L21.0162 29.3483Z" fill="white"/>
<path d="M58.2863 52.2458C58.2308 50.7789 57.6388 49.3244 56.5261 48.2118L53.1894 44.875L44.875 53.1893L48.2801 56.5944C49.3795 57.6938 50.806 58.2658 52.2464 58.3123C52.293 59.7524 52.8645 61.1788 53.9638 62.278C56.2596 64.5739 59.9821 64.5739 62.2782 62.278C64.574 59.9821 64.574 56.2596 62.2782 53.9636C61.1721 52.8579 59.7353 52.2863 58.2863 52.2458V52.2458Z" fill="white"/>
<path d="M55.4186 34.691C54.6863 33.9587 53.4991 33.9589 52.7669 34.691L34.6908 52.767C33.9585 53.4991 33.9585 54.6865 34.6908 55.4186C35.4229 56.1508 36.6102 56.1508 37.3424 55.4186L55.4186 37.3426C56.1508 36.6105 56.1508 35.4232 55.4186 34.691V34.691Z" fill="white"/>
<path d="M11.233 34.691C10.5009 33.9589 9.31367 33.9587 8.58141 34.691C7.84916 35.4232 7.84916 36.6104 8.58141 37.3426L26.6576 55.4186C27.3897 56.1508 28.5771 56.1508 29.3092 55.4186C30.0414 54.6865 30.0414 53.4993 29.3092 52.767L11.233 34.691Z" fill="white"/>
</svg>
