<svg width="64" height="64" viewBox="0 0 64 64" fill="none" xmlns="http://www.w3.org/2000/svg">
<g clip-path="url(#clip0)">
<path d="M61.1769 14.1177H52.7063V16.9412V19.7647V36.9568C52.7063 41.6274 48.9065 45.4274 44.2356 45.4274H26.7017L24.0127 47.3098L19.979 50.1333L17.5269 51.8498C18.043 52.5218 18.8522 52.9568 19.7651 52.9568H39.0791L52.7814 62.5485C53.265 62.887 53.8315 63.0591 54.4008 63.0591C54.8466 63.0591 55.2943 62.9537 55.7045 62.7401C56.6382 62.2537 57.224 61.2884 57.224 60.2355V52.9569H61.177C62.7364 52.9569 64.0005 51.6929 64.0005 50.1334V16.9412C64.0004 15.3818 62.7362 14.1177 61.1769 14.1177Z" fill="white"/>
<path d="M44.2352 0.940918H2.8235C1.26425 0.940918 0 2.20492 0 3.76454V36.9564C0 38.5159 1.26425 39.7799 2.8235 39.7799H6.7765V47.0585C6.7765 48.1113 7.36225 49.0767 8.29613 49.563C8.70625 49.7767 9.15388 49.882 9.59988 49.882C10.1689 49.882 10.7356 49.71 11.2192 49.3715L16.9412 45.366L19.7647 43.3895L22.5882 41.413L24.9214 39.7797H44.2352C45.7946 39.7797 47.0588 38.5157 47.0588 36.9562V19.7643V16.9408V14.1173V3.76454C47.0589 2.20492 45.7946 0.940918 44.2352 0.940918ZM32.9411 29.1763H31.2188H14.1176C12.5583 29.1763 11.2941 27.9119 11.2941 26.3528C11.2941 24.7933 12.5583 23.5293 14.1176 23.5293H32.9411C34.072 23.5293 35.045 24.1958 35.4956 25.156C35.6664 25.5199 35.7646 25.9244 35.7646 26.3528C35.7648 27.9119 34.5005 29.1763 32.9411 29.1763ZM32.9411 17.8819H14.1176C12.5583 17.8819 11.2941 16.6177 11.2941 15.0584C11.2941 13.499 12.5583 12.2349 14.1176 12.2349H32.9411C34.5005 12.2349 35.7646 13.4992 35.7646 15.0584C35.7648 16.6178 34.5005 17.8819 32.9411 17.8819Z" fill="white"/>
</g>
<defs>
<clipPath id="clip0">
<rect width="64" height="64" fill="white"/>
</clipPath>
</defs>
</svg>
