<svg width="256" height="256" viewBox="0 0 256 256" fill="none" xmlns="http://www.w3.org/2000/svg">
<path fill-rule="evenodd" clip-rule="evenodd" d="M23 13.7892C23 8.93507 26.9193 5 31.7539 5H223.246C228.081 5 232 8.93508 232 13.7892V241.211C232 246.065 228.081 250 223.246 250H31.7539C26.9193 250 23 246.065 23 241.211V13.7892ZM131.432 121.202C135.366 124.496 135.366 130.564 131.432 133.858L93.3635 165.733C88.0187 170.209 79.9005 166.393 79.9005 159.405V137.967H58.0157C53.181 137.967 49.2618 134.032 49.2618 129.178V124.783C49.2618 119.929 53.181 115.994 58.0157 115.994H79.9005V95.6548C79.9005 88.6673 88.0187 84.8514 93.3635 89.3266L131.432 121.202ZM100.691 23.6771H213.398V234.619H93.0314L153.215 218.139C153.215 218.139 161.969 217.26 161.969 204.955V48.9462C161.969 46.1996 161.969 39.333 153.215 36.861C153.215 36.861 114.551 26.6069 100.691 23.6771Z" fill="white"/>
</svg>
