<svg width="64" height="64" viewBox="0 0 64 64" fill="none" xmlns="http://www.w3.org/2000/svg">
<g clip-path="url(#clip0)">
<path d="M62.91 13.9259L62.7535 13.7692C61.2819 12.2977 58.8837 12.2944 57.4033 13.7736L51.6438 19.5937C51.3404 19.8981 50.855 19.9103 50.5385 19.619L42.4636 12.1641C41.6793 11.4393 40.6589 11.041 39.59 11.041H27.5779C27.2944 11.041 27.0231 11.1491 26.8179 11.3433L16.6371 21.01C15.1457 22.5026 15.0431 24.9085 16.4099 26.3734C17.1402 27.1567 18.1264 27.588 19.1865 27.588H19.2053C20.2566 27.5825 21.267 27.1357 21.9653 26.3723L29.1555 18.7629H31.7291L14.9494 37.5163H4.59988C2.14647 37.5163 0.128934 39.3508 0.0064701 41.6927C-0.058636 42.9161 0.369365 44.0788 1.21112 44.9656C2.04063 45.8404 3.20666 46.3412 4.41244 46.3412H19.8562C20.1606 46.3412 20.4519 46.2155 20.6615 45.9916L28.5742 37.5449L35.2282 44.5034L33.2194 57.3415C32.7131 59.4684 33.7335 61.6349 35.6452 62.4898C36.2343 62.7546 36.8597 62.8869 37.4819 62.8869C38.1515 62.8869 38.8178 62.7336 39.4311 62.4302C40.6159 61.8434 41.4675 60.77 41.7774 59.4352L45.2093 41.0273C45.2755 40.6699 45.1618 40.3014 44.9038 40.0445L35.7446 30.8974L43.0208 23.6322L48.093 28.7033C49.5094 30.1197 51.9782 30.1197 53.3936 28.7033L62.9103 19.1876C63.613 18.485 64.0002 17.5495 64.0002 16.5567C64 15.563 63.6127 14.6286 62.91 13.9259Z" fill="white"/>
<path d="M50.7433 14.3504C54.3936 14.3504 57.3622 11.3819 57.3622 7.73162C57.3622 4.0813 54.3936 1.11279 50.7433 1.11279C47.0931 1.11279 44.1245 4.0813 44.1245 7.73162C44.1246 11.3819 47.0931 14.3504 50.7433 14.3504Z" fill="white"/>
</g>
<defs>
<clipPath id="clip0">
<rect width="64" height="64" fill="white"/>
</clipPath>
</defs>
</svg>
